<?xml version="1.0" encoding="utf-8"?>
<!-- Generator: Adobe Illustrator 16.0.0, SVG Export Plug-In . SVG Version: 6.00 Build 0)  -->
<!DOCTYPE svg PUBLIC "-//W3C//DTD SVG 1.1//EN" "http://www.w3.org/Graphics/SVG/1.1/DTD/svg11.dtd">
<svg version="1.1" id="Layer_1" xmlns="http://www.w3.org/2000/svg" xmlns:xlink="http://www.w3.org/1999/xlink" x="0px" y="0px"
	 width="430.379px" height="91.794px" viewBox="0 0 430.379 91.794" enable-background="new 0 0 430.379 91.794"
	 xml:space="preserve">
<g>
	<g>
		<path fill="#FFFFFF" d="M359.869,14.535c1.936,0,3.588-0.684,4.953-2.05c1.367-1.367,2.051-3.045,2.051-5.04
			c0-1.935-0.684-3.573-2.051-4.911c-1.365-1.337-3.018-2.007-4.953-2.007s-3.588,0.67-4.953,2.007
			c-1.367,1.338-2.051,2.976-2.051,4.911c0,1.994,0.684,3.672,2.051,5.04C356.281,13.852,357.934,14.535,359.869,14.535z"/>
		<path fill="#FFFFFF" d="M412.926,46.009c-0.799-1.052-1.824-1.75-3.076-2.093c-1.252-0.341-2.549-0.256-3.887,0.256
			c-1.338,0.513-2.262,1.538-2.775,3.075c-1.082,2.733-2.391,5.053-3.928,6.961s-3.16,3.459-4.869,4.654
			c-1.709,1.197-3.459,2.064-5.252,2.605c-1.795,0.543-3.488,0.812-5.082,0.812c-2.963,0-5.311-0.74-7.047-2.221
			c-1.738-1.48-2.605-3.303-2.605-5.467c0-0.91,0.16-1.936,0.502-3.074l5.283-14.863v0.085c0-1.081,0.979-1.921,1.719-2.519
			s1.487-0.867,2.228-0.812c1.311,0.114,2.079,0.712,2.308,1.793c0.227,1.083-0.054,2.364-0.851,3.844
			c-0.855,1.708-0.911,3.26-0.171,4.655c0.74,1.396,1.836,2.349,3.289,2.861c1.451,0.513,3.017,0.414,4.698-0.299
			c1.678-0.711,3.003-2.319,3.972-4.826c0.91-2.562,1.238-4.981,0.982-7.26c-0.256-2.276-0.971-4.298-2.137-6.064
			c-1.168-1.764-2.705-3.16-4.611-4.185c-1.908-1.025-4.029-1.537-6.363-1.537c-1.822,0-3.631,0.256-5.424,0.769
			s-3.475,1.296-5.039,2.349c-1.566,1.054-2.99,2.406-4.27,4.057c-1.283,1.652-2.295,3.587-3.033,5.808l-4.219,12.433
			c-1.02,2.77-2.053,5.074-3.1,6.914c-1.055,1.85-2.092,3.344-3.117,4.482c-1.025,1.141-2.021,1.951-2.99,2.436
			s-1.879,0.725-2.732,0.725c-0.969,0-1.75-0.283-2.35-0.854c-0.598-0.568-0.896-1.252-0.896-2.051c0-0.396,0.086-0.854,0.258-1.365
			l9.395-26.819c0.738-2.448,0.684-4.427-0.172-5.937c-0.854-1.508-2.021-2.434-3.502-2.776s-3.031-0.056-4.654,0.854
			c-1.623,0.911-2.834,2.534-3.631,4.868c-0.682,1.994-1.408,4.115-2.178,6.363c-0.768,2.25-1.551,4.499-2.348,6.748
			c-0.787,2.22-1.559,4.424-2.318,6.616c-0.076,0.166-0.15,0.336-0.219,0.516c-1.709,4.727-3.801,8.213-6.277,10.463
			s-4.969,3.373-7.475,3.373c-1.537,0-2.748-0.398-3.629-1.197c-0.883-0.801-1.324-1.771-1.324-2.914
			c0-0.742,0.113-1.265,0.342-1.778l8.115-22.681h5.551c1.934,0,3.473-0.633,4.611-1.687s1.809-2.274,2.008-3.556
			c0.199-1.281-0.072-2.285-0.811-3.339c-0.742-1.054-2.023-1.419-3.844-1.419h-3.846l5.639-16.245
			c0.512-1.651,0.299-3.183-0.641-4.407s-2.15-2.068-3.629-2.439c-1.482-0.37-3.006-0.237-4.57,0.445
			c-1.566,0.684-2.689,2.285-3.375,4.448l-6.484,18.198h-3.562c-2.164,0-3.758,0.339-4.783,1.392
			c-1.025,1.055-1.609,2.127-1.75,3.408c-0.143,1.28,0.127,2.507,0.811,3.561s1.65,1.639,2.904,1.639h2.818
			c-0.621,2-1.217,3.41-1.781,4.976c-0.566,1.567-1.117,3.064-1.654,4.602c-0.463,1.326-0.941,2.642-1.426,3.987
			c-0.176,0.312-0.33,0.638-0.465,1.013c-1.992,4.896-4.982,8.506-8.969,10.84c0.115-0.566,0.199-1.113,0.258-1.627
			c0.057-0.512,0.084-1.052,0.084-1.622c0-2.506-0.541-4.913-1.621-7.22c-1.084-2.305-2.221-4.455-3.418-6.449
			c-0.854-1.48-1.65-2.933-2.391-4.356c-0.74-1.423-1.195-2.789-1.367-4.1c1.139-0.455,2.062-1.167,2.775-2.135
			c0.713-0.967,1.182-2.05,1.41-3.246c0.113-0.91,0.057-1.822-0.172-2.733c-0.229-0.91-0.596-1.722-1.109-2.435
			c-0.512-0.711-1.143-1.324-1.939-1.836s-1.537-0.854-2.537-1.024v0.085c-1-0.113-1.234-0.141-1.775-0.085
			c-0.543,0.057-1.079,0.143-1.593,0.256c-0.969,0.229-1.972,0.713-2.997,1.453c-1.025,0.741-2.024,1.822-2.991,3.245
			c-1.652,3.245-3.362,6.491-5.126,9.737c-1.766,3.245-3.504,6.491-5.211,9.737c-1.424,0.341-2.677,0.982-3.759,1.921
			s-1.979,2.036-2.69,3.288c-0.711,1.253-1.238,2.592-1.58,4.016c-0.26,1.076-0.418,2.137-0.482,3.18
			c-0.592,0.811-1.191,1.525-1.797,2.115c-2.051,1.994-4.045,2.988-5.98,2.988c-1.535,0-2.305-0.711-2.305-2.135
			c0-0.625,0.141-1.451,0.426-2.477l9.566-27.332c0.74-2.164,0.74-3.915,0-5.253c-0.74-1.337-1.793-2.263-3.16-2.775
			c-1.365-0.513-2.861-0.583-4.484-0.214c-1.621,0.371-2.945,1.183-3.971,2.435c-0.854-0.569-2.107-1.154-3.758-1.751
			c-1.652-0.598-3.674-0.897-6.064-0.897c-2.848,0-5.594,0.799-8.242,2.393c-2.648,1.594-4.6,4.014-5.852,7.259l-6.365,17.946
			c-1.633,4.198-3.59,7.349-5.879,9.429c-2.479,2.25-4.969,3.373-7.475,3.373c-1.537,0-2.748-0.398-3.629-1.197
			c-0.885-0.801-1.324-1.771-1.324-2.914c0-0.742,0.113-1.265,0.342-1.778l8.113-22.681h5.553c1.934,0,3.473-0.633,4.611-1.687
			s1.807-2.274,2.006-3.556c0.201-1.281-0.07-2.285-0.811-3.339s-2.021-1.419-3.844-1.419h-3.842l5.637-16.245
			c0.512-1.651,0.299-3.183-0.641-4.407c-0.941-1.225-2.15-2.068-3.631-2.439c-1.48-0.37-3.004-0.237-4.568,0.445
			c-1.566,0.684-2.691,2.285-3.375,4.448l-6.484,18.198h-3.562c-2.166,0-3.76,0.339-4.783,1.392
			c-1.025,1.055-1.609,2.127-1.752,3.408c-0.143,1.28,0.129,2.507,0.812,3.561s1.65,1.639,2.904,1.639h2.818
			c-0.623,2-1.217,3.41-1.783,4.976c-0.564,1.567-1.115,3.064-1.652,4.602c-0.402,1.15-0.82,2.291-1.238,3.456
			c-0.002,0.008-0.006,0-0.008,0.007c-0.514,1.311-1.238,2.342-2.178,3.11s-2.064,1.149-3.375,1.149
			c-1.195,0-2.191-0.286-2.988-0.855c-0.799-0.568-1.139-1.338-1.025-2.307l4.441-12.214c0.74-2.105,1.111-4.043,1.111-5.809
			c0-1.764-0.342-3.274-1.025-4.527c-0.684-1.251-1.68-2.178-2.99-2.776c-1.311-0.598-2.902-0.812-4.783-0.641
			c-1.537,0.172-2.945,0.784-4.227,1.836c-1.281,1.055-2.393,2.392-3.332,4.015c-0.939,1.623-1.709,3.416-2.305,5.38
			c-0.6,1.964-0.998,3.929-1.197,5.894c-0.199,1.964-0.17,3.843,0.086,5.637c0.256,1.793,0.783,3.318,1.58,4.57l-2.562,6.662
			c-0.74,1.822-1.738,3.387-2.99,4.697s-2.619,1.965-4.1,1.965c-0.854,0-1.523-0.242-2.006-0.727
			c-0.484-0.484-0.727-1.123-0.727-1.922c0-0.684,0.086-1.281,0.256-1.793l9.908-27.077c0.512-1.367,0.654-2.605,0.428-3.715
			c-0.229-1.11-0.699-2.05-1.41-2.819c-0.713-0.769-1.58-1.323-2.605-1.665c-1.023-0.342-2.064-0.427-3.117-0.256
			c-1.055,0.17-2.051,0.64-2.988,1.409c-0.939,0.769-1.768,1.894-2.279,3.374l-9.924,27.503v-0.086c-1,2.164-1.75,3.93-3.059,5.295
			c-1.311,1.367-2.655,2.051-4.136,2.051c-0.74,0-1.284-0.227-1.683-0.684c-0.398-0.455-0.585-0.996-0.585-1.623
			c0-0.512,0.093-1.025,0.263-1.537l9.654-27.247c0.512-1.367,0.657-2.605,0.429-3.715s-0.696-2.05-1.409-2.819
			c-0.713-0.769-1.578-1.323-2.604-1.665c-1.025-0.342-2.064-0.427-3.117-0.256c-1.055,0.17-2.051,0.64-2.99,1.409
			c-0.939,0.769-1.666,1.885-2.178,3.364l-1.965,5.372h0.086l-4.949,14.201c-0.281,0.424-0.506,0.907-0.67,1.444
			c-0.969,2.506-2.207,4.644-3.717,6.407c-1.51,1.766-3.16,3.218-4.953,4.356c-1.793,1.141-3.672,1.98-5.637,2.52
			c-1.965,0.543-3.859,0.812-5.68,0.812c-3.133,0-5.609-0.681-7.432-2.048s-2.732-3.046-2.732-5.04c0-0.854,0.141-1.653,0.428-2.394
			l0.682-1.621c1.252,0.799,2.633,1.424,4.143,1.879c1.508,0.455,3.117,0.684,4.826,0.684c1.936,0,3.801-0.299,5.594-0.896
			c1.795-0.598,3.43-1.438,4.912-2.521c1.48-1.08,2.775-2.391,3.887-3.928c1.109-1.538,1.949-3.274,2.52-5.21
			c0.455-1.708,0.682-3.273,0.682-4.698c0-2.049-0.383-3.942-1.152-5.68c-0.768-1.736-1.852-3.245-3.246-4.527
			c-1.395-1.281-3.088-2.291-5.08-3.032c-1.994-0.739-4.186-1.11-6.578-1.11c-1.879,0-3.744,0.271-5.594,0.811
			c-1.852,0.542-3.574,1.366-5.168,2.478c-1.594,1.11-3.02,2.477-4.27,4.099c-1.254,1.624-2.252,3.489-2.99,5.595l-4.549,13.188
			c-0.721,1.828-1.492,3.53-2.322,5.091c-0.939,1.766-1.895,3.289-2.861,4.568c-0.969,1.281-1.938,2.293-2.904,3.033
			c-0.969,0.74-1.908,1.109-2.818,1.109c-0.627,0-1.082-0.213-1.367-0.641c-0.285-0.426-0.426-0.951-0.426-1.58
			c0-0.625,0.113-1.25,0.34-1.879l5.041-14.007c0.283-0.854,0.498-1.666,0.641-2.435c0.141-0.769,0.213-1.522,0.213-2.263
			c0-2.05-0.555-3.801-1.666-5.253c-1.109-1.452-2.463-2.69-4.057-3.715c-1.596-1.025-3.246-1.864-4.953-2.519
			c-1.709-0.654-3.162-1.153-4.357-1.495c0.398-1.196,0.471-2.35,0.215-3.46c-0.258-1.11-0.727-2.106-1.41-2.99
			c-0.684-0.882-1.537-1.593-2.562-2.135c-1.023-0.54-2.107-0.812-3.244-0.812c-1.766,0-3.289,0.485-4.57,1.452
			c-1.281,0.969-2.15,2.221-2.605,3.759c-0.285,0.627-0.498,1.311-0.641,2.049c-0.143,0.741-0.213,1.424-0.213,2.05
			c0,2.278,0.711,4.3,2.135,6.064l-5.148,13.896c-0.887,1.994-2.09,3.798-3.615,5.009c-1.795,1.422-3.83,2.333-6.107,2.333h-0.428
			l4.186-11.644c0.855-2.276,1.281-4.596,1.281-6.761c0-2.106-0.371-4.063-1.111-5.771c-0.74-1.709-1.736-3.199-2.988-4.424
			c-1.254-1.224-2.719-2.175-4.398-2.832c-1.68-0.653-3.459-0.988-5.338-0.988c-1.482,0-2.848,0.198-4.1,0.595l4.611-13.326
			c0.854-2.276,0.854-4.142,0-5.595c-0.854-1.452-2.051-2.393-3.588-2.82c-1.537-0.427-3.117-0.256-4.738,0.512
			C19.67,1.51,18.545,2.976,17.92,5.14c-1.482,4.214-2.875,8.214-4.186,12c-1.311,3.788-2.619,7.545-3.928,11.274
			c-1.311,3.73-2.635,7.488-3.973,11.274c-1.338,3.788-2.721,7.788-4.143,12c-0.396,1.082-0.697,2.207-0.896,3.373
			c-0.199,1.168-0.299,2.236-0.299,3.203c0,2.336,0.441,4.414,1.324,6.236c0.881,1.822,2.078,3.359,3.588,4.611
			c1.508,1.252,3.23,2.205,5.166,2.861c1.936,0.654,3.984,0.982,6.15,0.982c1.537,0,3.117-0.186,4.74-0.555
			c1.623-0.371,3.174-0.939,4.654-1.709s2.861-1.764,4.143-2.99c1.281-1.223,2.377-2.689,3.289-4.398
			c1.023,0.172,2.105,0.258,3.244,0.258c2.277,0,4.514-0.328,6.705-0.982s4.242-1.623,6.15-2.904
			c1.906-1.281,3.588-2.861,5.039-4.74c0.422-0.545,0.807-1.121,1.172-1.713c0.289-0.381,0.535-0.805,0.734-1.277
			c0.574-1.094,1.062-2.26,1.467-3.502c0.109-0.343,0.182-0.674,0.217-0.993l3.295-8.829c0.684,0.229,1.41,0.457,2.178,0.684
			c0.77,0.228,1.438,0.554,2.008,0.982c0.568,0.427,0.982,0.969,1.238,1.623c0.256,0.655,0.215,1.495-0.129,2.52l-3.756,10.42
			c-0.686,1.994-1.025,3.816-1.025,5.467c0,1.875,0.34,3.561,1.025,5.057c0.682,1.498,1.621,2.768,2.818,3.811
			c1.195,1.045,2.574,1.863,4.141,2.457c1.566,0.592,3.232,0.889,4.998,0.889c4.668,0,9.01-1.965,13.023-5.893
			c0.344-0.336,0.68-0.689,1.014-1.049c0.822,0.963,1.762,1.842,2.826,2.629c1.965,1.451,4.285,2.562,6.961,3.33
			c2.676,0.77,5.58,1.154,8.713,1.154c2.959,0,5.979-0.4,9.053-1.195c3.076-0.799,6.008-2.078,8.799-3.844
			c0.227-0.145,0.451-0.299,0.676-0.449c0.592,1.025,1.326,1.918,2.211,2.67c1.137,0.967,2.461,1.721,3.971,2.262
			c1.508,0.541,3.117,0.812,4.826,0.812c2.221,0,4.299-0.428,6.234-1.281c1.936-0.855,3.672-2.021,5.211-3.502
			c1.309,1.48,2.988,2.646,5.039,3.502c2.049,0.854,4.186,1.281,6.406,1.281c1.992,0,3.998-0.328,6.021-0.982
			c2.02-0.656,3.928-1.609,5.721-2.861c1.795-1.252,3.402-2.734,4.826-4.441s2.562-3.643,3.418-5.809
			c2.221,1.596,4.924,2.393,8.113,2.393c0.791,0,1.58-0.078,2.365-0.219c0.213,1.244,0.602,2.398,1.166,3.465
			c0.904,1.707,2.105,3.16,3.604,4.355c1.5,1.195,3.238,2.105,5.221,2.732c1.98,0.627,4.082,0.939,6.303,0.939
			c5.445,0,10.311-1.859,14.596-5.568c0.281,0.348,0.578,0.682,0.895,1c1.168,1.168,2.562,2.092,4.186,2.775
			s3.375,1.025,5.254,1.025c1.934,0,3.855-0.385,5.764-1.152c1.908-0.77,3.631-1.838,5.168-3.203
			c0.627,1.082,1.465,1.963,2.52,2.646c1.053,0.684,2.148,1.209,3.289,1.58c1.139,0.369,2.234,0.611,3.287,0.727
			c1.055,0.113,1.924,0.17,2.605,0.17c1.766,0,3.588-0.27,5.467-0.811c1.879-0.543,3.729-1.424,5.553-2.648
			c0.592-0.398,1.178-0.846,1.758-1.334c0.379,0.375,0.779,0.734,1.205,1.078c1.65,1.338,3.57,2.404,5.764,3.203
			c2.191,0.797,4.512,1.252,6.961,1.365c0.684,0,1.508-0.027,2.477-0.084c0.969-0.059,1.795-0.143,2.479-0.258
			c4.496-0.227,8.568-0.797,12.213-1.707c3.643-0.912,6.904-2.277,9.779-4.1c0.641-0.406,1.26-0.84,1.859-1.295
			c0.762,1.098,1.662,2.074,2.719,2.918c1.498,1.195,3.238,2.105,5.219,2.732s4.082,0.939,6.303,0.939
			c5.236,0,9.938-1.719,14.1-5.148c0.529,0.666,1.131,1.273,1.805,1.818c1.336,1.08,2.873,1.906,4.611,2.477
			c1.736,0.568,3.602,0.854,5.594,0.854c2.107,0,4.229-0.355,6.363-1.066c2.137-0.713,4.229-1.951,6.279-3.717
			c0.762-0.656,1.512-1.391,2.25-2.205c0.688,0.83,1.463,1.594,2.334,2.291c1.85,1.48,4.07,2.648,6.662,3.502
			c2.59,0.854,5.451,1.281,8.584,1.281c3.131,0,6.234-0.457,9.311-1.367c3.074-0.91,5.963-2.307,8.668-4.184
			c2.705-1.879,5.139-4.242,7.303-7.09s3.93-6.207,5.297-10.078C413.836,48.357,413.721,47.064,412.926,46.009z M104.447,36.656
			c0.512-1.309,1.238-2.319,2.178-3.031s1.893-1.068,2.861-1.068c1.195,0,2.148,0.427,2.861,1.281
			c0.711,0.854,1.068,1.879,1.068,3.075c0,0.74-0.115,1.424-0.342,2.049c-0.342,1.14-0.926,2.007-1.752,2.605
			s-1.75,0.982-2.775,1.153s-2.064,0.171-3.117,0c-1.055-0.171-1.98-0.482-2.775-0.939L104.447,36.656z M30.133,37.084l-2.135,6.064
			c-0.285-0.114-0.371-0.142-0.256-0.086c0.113,0.058,0.027,0.086-0.256,0.086c-1.025,0-1.994,0.201-2.904,0.598
			c-0.912,0.398-1.709,0.954-2.391,1.665c-0.684,0.713-1.227,1.538-1.623,2.478c-0.4,0.939-0.598,1.951-0.598,3.032
			c0,2.507,0.908,4.812,2.732,6.919l-0.17,0.684c-0.514,1.422-1.324,2.49-2.436,3.201c-1.109,0.713-2.234,1.068-3.373,1.068
			c-1.254,0-2.25-0.398-2.99-1.195s-1.109-1.795-1.109-2.99c0-0.91,0.141-1.764,0.426-2.562c1.139-3.246,2.264-6.461,3.375-9.651
			c1.109-3.188,2.232-6.406,3.373-9.651c0.854-1.593,1.906-2.861,3.16-3.801c1.252-0.939,2.506-1.409,3.758-1.409
			c1.139,0,2.062,0.341,2.775,1.024c0.713,0.684,1.068,1.567,1.068,2.648C30.561,35.888,30.418,36.515,30.133,37.084z
			 M245.215,43.831l-3.074,8.797c-0.627,1.596-1.311,2.861-2.051,3.801s-1.451,1.637-2.135,2.094
			c-0.684,0.455-1.324,0.74-1.922,0.854s-1.098,0.113-1.494,0c-0.684-0.172-1.184-0.498-1.496-0.982
			c-0.312-0.482-0.498-1.025-0.555-1.623s-0.029-1.195,0.086-1.793c0.113-0.6,0.256-1.125,0.426-1.58l4.441-13.239
			c0.686-1.822,1.381-3.146,2.094-3.972c0.711-0.824,1.379-1.366,2.008-1.623c0.625-0.256,1.152-0.341,1.58-0.256
			c0.428,0.085,0.668,0.158,0.725,0.214c0.057,0,0.285,0.1,0.684,0.299c0.398,0.2,0.77,0.627,1.111,1.281
			c0.342,0.655,0.525,1.595,0.555,2.819C246.225,40.146,245.898,41.781,245.215,43.831z M287.979,58.523
			c-0.455,1.537-1.238,2.689-2.348,3.459c-1.111,0.768-2.406,1.182-3.887,1.238c-1.482,0-2.805-0.301-3.973-0.898
			c-1.166-0.598-1.979-1.465-2.434-2.605c2.164,0.457,4.016,0.229,5.553-0.682s2.66-2.121,3.373-3.631
			c0.711-1.508,0.982-3.131,0.811-4.867c-0.17-1.736-0.854-3.203-2.049-4.4l0.77-1.623c1.592,1.937,2.859,4.157,3.801,6.662
			C288.535,53.683,288.662,56.13,287.979,58.523z"/>
	</g>
	<path fill="#FFFFFF" d="M423.375,58.42c1.936,0,3.586,0.668,4.953,2.006c1.367,1.34,2.051,3.004,2.051,4.996
		c0,1.938-0.684,3.588-2.051,4.955s-3.018,2.049-4.953,2.049c-1.994,0-3.66-0.682-4.996-2.049c-1.34-1.367-2.008-3.018-2.008-4.955
		c0-1.992,0.668-3.656,2.008-4.996C419.715,59.088,421.381,58.42,423.375,58.42z"/>
	<path fill="#FFFFFF" d="M411.734,82.307c-0.996-0.975-2.201-1.513-3.611-1.513l0,0l0,0H5.104l0,0c-1.453,0-2.666,0.538-3.641,1.513
		S0,84.519,0,85.972c0,1.41,0.488,2.974,1.463,3.968c0.975,0.996,2.188,1.854,3.641,1.854l0,0h403.02l0,0l0,0
		c1.41,0,2.615-0.845,3.611-1.841c0.994-0.996,1.492-2.396,1.492-3.809C413.227,84.694,412.729,83.282,411.734,82.307z"/>
</g>
</svg>
